<svg xmlns="http://www.w3.org/2000/svg" viewBox="0 0 700 256" width="700" height="256" role="img" aria-label="Living Mars Machine">
  <defs>
    <clipPath id="disk"><circle cx="128" cy="128" r="88"/></clipPath>
    <filter id="glow" x="-60%" y="-60%" width="220%" height="220%">
      <feGaussianBlur stdDeviation="3" result="blur"/>
      <feMerge><feMergeNode in="blur"/><feMergeNode in="SourceGraphic"/></feMerge>
    </filter>
    <radialGradient id="rim" cx="35%" cy="30%" r="78%">
      <stop offset="60%" stop-color="#000000" stop-opacity="0"/>
      <stop offset="100%" stop-color="#000000" stop-opacity="0.45"/>
    </radialGradient>
  </defs>
  <g transform="translate(20 0) scale(0.94) translate(8 8)"><g><circle cx="128" cy="128" r="112" fill="none" stroke="#D6D3CD" stroke-opacity="0.28" stroke-width="2"/><circle cx="128" cy="128" r="112" fill="none" stroke="#4FC3F7" stroke-width="3" stroke-linecap="round" stroke-dasharray="52 652" transform="rotate(85.959 128 128)"/><circle cx="85.033" cy="231.43" r="5" fill="#4FC3F7" filter="url(#glow)"/><g>
    <g clip-path="url(#disk)">
      <circle cx="128" cy="128" r="88" fill="#2E1A12"/>
      <polygon points="49.538,143.3 49.538,157.7 37.067,164.9 24.597,157.7 24.597,143.3 37.067,136.1" fill="#a96b49"/><polygon points="62.528,165.8 62.528,180.2 50.058,187.4 37.587,180.2 37.587,165.8 50.058,158.6" fill="#ae704d"/><polygon points="75.519,188.3 75.519,202.7 63.048,209.9 50.577,202.7 50.577,188.3 63.048,181.1" fill="#9e5f41"/><polygon points="49.538,98.3 49.538,112.7 37.067,119.9 24.597,112.7 24.597,98.3 37.067,91.1" fill="#ba7e57"/><polygon points="62.528,120.8 62.528,135.2 50.058,142.4 37.587,135.2 37.587,120.8 50.058,113.6" fill="#b97d56"/><polygon points="58.112,123.35 58.112,132.65 50.058,137.3 42.004,132.65 42.004,123.35 50.058,118.7" fill="#4FC3F7" opacity="0.819" filter="url(#glow)"/><circle cx="50.058" cy="128" r="3.3" fill="#D6D3CD"/><polygon points="75.519,143.3 75.519,157.7 63.048,164.9 50.577,157.7 50.577,143.3 63.048,136.1" fill="#b77a54"/><polygon points="71.102,145.85 71.102,155.15 63.048,159.8 54.994,155.15 54.994,145.85 63.048,141.2" fill="#4FC3F7" opacity="0.783" filter="url(#glow)"/><circle cx="63.048" cy="150.5" r="3.3" fill="#D6D3CD"/><polygon points="88.509,165.8 88.509,180.2 76.038,187.4 63.568,180.2 63.568,165.8 76.038,158.6" fill="#a66747"/><polygon points="101.5,188.3 101.5,202.7 89.029,209.9 76.558,202.7 76.558,188.3 89.029,181.1" fill="#ab6d4b"/><polygon points="97.083,190.85 97.083,200.15 89.029,204.8 80.975,200.15 80.975,190.85 89.029,186.2" fill="#4FC3F7" opacity="0.689" filter="url(#glow)"/><circle cx="89.029" cy="195.5" r="3.3" fill="#D6D3CD"/><polygon points="114.49,210.8 114.49,225.2 102.019,232.4 89.548,225.2 89.548,210.8 102.019,203.6" fill="#9f6041"/><polygon points="62.528,75.8 62.528,90.2 50.058,97.4 37.587,90.2 37.587,75.8 50.058,68.6" fill="#b37651"/><polygon points="75.519,98.3 75.519,112.7 63.048,119.9 50.577,112.7 50.577,98.3 63.048,91.1" fill="#b1734f"/><polygon points="88.509,120.8 88.509,135.2 76.038,142.4 63.568,135.2 63.568,120.8 76.038,113.6" fill="#ba7e57"/><polygon points="101.5,143.3 101.5,157.7 89.029,164.9 76.558,157.7 76.558,143.3 89.029,136.1" fill="#a76948"/><polygon points="114.49,165.8 114.49,180.2 102.019,187.4 89.548,180.2 89.548,165.8 102.019,158.6" fill="#b17450"/><polygon points="110.073,168.35 110.073,177.65 102.019,182.3 93.965,177.65 93.965,168.35 102.019,163.7" fill="#4FC3F7" opacity="0.733" filter="url(#glow)"/><circle cx="102.019" cy="173" r="3.3" fill="#D6D3CD"/><polygon points="127.48,188.3 127.48,202.7 115.01,209.9 102.539,202.7 102.539,188.3 115.01,181.1" fill="#9d5e40"/><polygon points="140.471,210.8 140.471,225.2 128,232.4 115.529,225.2 115.529,210.8 128,203.6" fill="#98573b"/><polygon points="75.519,53.3 75.519,67.7 63.048,74.9 50.577,67.7 50.577,53.3 63.048,46.1" fill="#c3885e"/><polygon points="71.102,55.85 71.102,65.15 63.048,69.8 54.994,65.15 54.994,55.85 63.048,51.2" fill="#4FC3F7" opacity="0.902" filter="url(#glow)"/><circle cx="63.048" cy="60.5" r="3.3" fill="#D6D3CD"/><polygon points="88.509,75.8 88.509,90.2 76.038,97.4 63.568,90.2 63.568,75.8 76.038,68.6" fill="#c2875e"/><polygon points="101.5,98.3 101.5,112.7 89.029,119.9 76.558,112.7 76.558,98.3 89.029,91.1" fill="#be825a"/><polygon points="114.49,120.8 114.49,135.2 102.019,142.4 89.548,135.2 89.548,120.8 102.019,113.6" fill="#b37752"/><polygon points="127.48,143.3 127.48,157.7 115.01,164.9 102.539,157.7 102.539,143.3 115.01,136.1" fill="#ac6f4c"/><polygon points="140.471,165.8 140.471,180.2 128,187.4 115.529,180.2 115.529,165.8 128,158.6" fill="#ad6f4c"/><polygon points="153.461,188.3 153.461,202.7 140.99,209.9 128.52,202.7 128.52,188.3 140.99,181.1" fill="#9a5a3d"/><polygon points="166.452,210.8 166.452,225.2 153.981,232.4 141.51,225.2 141.51,210.8 153.981,203.6" fill="#9b5b3e"/><polygon points="101.5,53.3 101.5,67.7 89.029,74.9 76.558,67.7 76.558,53.3 89.029,46.1" fill="#c0855c"/><polygon points="114.49,75.8 114.49,90.2 102.019,97.4 89.548,90.2 89.548,75.8 102.019,68.6" fill="#bf835b"/><polygon points="127.48,98.3 127.48,112.7 115.01,119.9 102.539,112.7 102.539,98.3 115.01,91.1" fill="#bb8058"/><polygon points="140.471,120.8 140.471,135.2 128,142.4 115.529,135.2 115.529,120.8 128,113.6" fill="#ae704d"/><polygon points="153.461,143.3 153.461,157.7 140.99,164.9 128.52,157.7 128.52,143.3 140.99,136.1" fill="#b27550"/><polygon points="149.044,145.85 149.044,155.15 140.99,159.8 132.936,155.15 132.936,145.85 140.99,141.2" fill="#4FC3F7" opacity="0.74" filter="url(#glow)"/><circle cx="140.99" cy="150.5" r="3.3" fill="#D6D3CD"/><polygon points="166.452,165.8 166.452,180.2 153.981,187.4 141.51,180.2 141.51,165.8 153.981,158.6" fill="#a66847"/><polygon points="179.442,188.3 179.442,202.7 166.971,209.9 154.5,202.7 154.5,188.3 166.971,181.1" fill="#a06042"/><polygon points="114.49,30.8 114.49,45.2 102.019,52.4 89.548,45.2 89.548,30.8 102.019,23.6" fill="#ba7e57"/><polygon points="127.48,53.3 127.48,67.7 115.01,74.9 102.539,67.7 102.539,53.3 115.01,46.1" fill="#b0734f"/><polygon points="140.471,75.8 140.471,90.2 128,97.4 115.529,90.2 115.529,75.8 128,68.6" fill="#b0734f"/><polygon points="153.461,98.3 153.461,112.7 140.99,119.9 128.52,112.7 128.52,98.3 140.99,91.1" fill="#b0734f"/><polygon points="166.452,120.8 166.452,135.2 153.981,142.4 141.51,135.2 141.51,120.8 153.981,113.6" fill="#a96b49"/><polygon points="179.442,143.3 179.442,157.7 166.971,164.9 154.5,157.7 154.5,143.3 166.971,136.1" fill="#aa6c4a"/><polygon points="192.432,165.8 192.432,180.2 179.962,187.4 167.491,180.2 167.491,165.8 179.962,158.6" fill="#9c5c3f"/><polygon points="205.423,188.3 205.423,202.7 192.952,209.9 180.481,202.7 180.481,188.3 192.952,181.1" fill="#a26344"/><polygon points="201.006,190.85 201.006,200.15 192.952,204.8 184.898,200.15 184.898,190.85 192.952,186.2" fill="#4FC3F7" opacity="0.592" filter="url(#glow)"/><circle cx="192.952" cy="195.5" r="3.3" fill="#D6D3CD"/><polygon points="140.471,30.8 140.471,45.2 128,52.4 115.529,45.2 115.529,30.8 128,23.6" fill="#b0734f"/><polygon points="153.461,53.3 153.461,67.7 140.99,74.9 128.52,67.7 128.52,53.3 140.99,46.1" fill="#b77a54"/><polygon points="166.452,75.8 166.452,90.2 153.981,97.4 141.51,90.2 141.51,75.8 153.981,68.6" fill="#b77b55"/><polygon points="162.035,78.35 162.035,87.65 153.981,92.3 145.927,87.65 145.927,78.35 153.981,73.7" fill="#4FC3F7" opacity="0.788" filter="url(#glow)"/><circle cx="153.981" cy="83" r="3.3" fill="#D6D3CD"/><polygon points="179.442,98.3 179.442,112.7 166.971,119.9 154.5,112.7 154.5,98.3 166.971,91.1" fill="#ab6d4b"/><polygon points="192.432,120.8 192.432,135.2 179.962,142.4 167.491,135.2 167.491,120.8 179.962,113.6" fill="#a26243"/><polygon points="205.423,143.3 205.423,157.7 192.952,164.9 180.481,157.7 180.481,143.3 192.952,136.1" fill="#a16143"/><polygon points="218.413,165.8 218.413,180.2 205.942,187.4 193.472,180.2 193.472,165.8 205.942,158.6" fill="#955539"/><polygon points="166.452,30.8 166.452,45.2 153.981,52.4 141.51,45.2 141.51,30.8 153.981,23.6" fill="#b17450"/><polygon points="179.442,53.3 179.442,67.7 166.971,74.9 154.5,67.7 154.5,53.3 166.971,46.1" fill="#b27551"/><polygon points="175.025,55.85 175.025,65.15 166.971,69.8 158.917,65.15 158.917,55.85 166.971,51.2" fill="#4FC3F7" opacity="0.758" filter="url(#glow)"/><circle cx="166.971" cy="60.5" r="3.3" fill="#D6D3CD"/><polygon points="192.432,75.8 192.432,90.2 179.962,97.4 167.491,90.2 167.491,75.8 179.962,68.6" fill="#ad6f4c"/><polygon points="205.423,98.3 205.423,112.7 192.952,119.9 180.481,112.7 180.481,98.3 192.952,91.1" fill="#ad704d"/><polygon points="201.006,100.85 201.006,110.15 192.952,114.8 184.898,110.15 184.898,100.85 192.952,96.2" fill="#4FC3F7" opacity="0.696" filter="url(#glow)"/><circle cx="192.952" cy="105.5" r="3.3" fill="#D6D3CD"/><polygon points="218.413,120.8 218.413,135.2 205.942,142.4 193.472,135.2 193.472,120.8 205.942,113.6" fill="#a96b49"/><polygon points="213.996,123.35 213.996,132.65 205.942,137.3 197.888,132.65 197.888,123.35 205.942,118.7" fill="#4FC3F7" opacity="0.654" filter="url(#glow)"/><circle cx="205.942" cy="128" r="3.3" fill="#D6D3CD"/><polygon points="231.403,143.3 231.403,157.7 218.933,164.9 206.462,157.7 206.462,143.3 218.933,136.1" fill="#a16243"/><polygon points="205.423,53.3 205.423,67.7 192.952,74.9 180.481,67.7 180.481,53.3 192.952,46.1" fill="#ae714d"/><polygon points="201.006,55.85 201.006,65.15 192.952,69.8 184.898,65.15 184.898,55.85 192.952,51.2" fill="#4FC3F7" opacity="0.703" filter="url(#glow)"/><circle cx="192.952" cy="60.5" r="3.3" fill="#D6D3CD"/><polygon points="218.413,75.8 218.413,90.2 205.942,97.4 193.472,90.2 193.472,75.8 205.942,68.6" fill="#99593d"/><polygon points="231.403,98.3 231.403,112.7 218.933,119.9 206.462,112.7 206.462,98.3 218.933,91.1" fill="#a76848"/><polygon points="226.987,100.85 226.987,110.15 218.933,114.8 210.879,110.15 210.879,100.85 218.933,96.2" fill="#4FC3F7" opacity="0.641" filter="url(#glow)"/><circle cx="218.933" cy="105.5" r="3.3" fill="#D6D3CD"/>
      <path d="M 128 40 A 88 88 0 0 1 128 216 A 38.948 88 0 0 0 128 40 Z" fill="#1A1626" opacity="0.62"/>
      <circle cx="153.981" cy="83" r="2.6" fill="#FFD08A" filter="url(#glow)"/><circle cx="166.971" cy="60.5" r="2.6" fill="#FFD08A" filter="url(#glow)"/><circle cx="192.952" cy="105.5" r="2.6" fill="#FFD08A" filter="url(#glow)"/><circle cx="205.942" cy="128" r="2.6" fill="#FFD08A" filter="url(#glow)"/>
      <circle cx="128" cy="128" r="88" fill="url(#rim)"/>
    </g>
    <circle cx="128" cy="128" r="88" fill="none" stroke="#D6D3CD" stroke-opacity="0.4" stroke-width="1.5"/>
  </g></g></g>
  <g font-family="'Inter', 'Helvetica Neue', Arial, sans-serif" text-anchor="start">
    <text x="296" y="116" fill="#D6D3CD" font-size="52" font-weight="700" letter-spacing="6">LIVING MARS</text>
    <text x="296" y="174" fill="#4FC3F7" font-size="52" font-weight="700" letter-spacing="6">MACHINE</text>
  </g>
</svg>
